HIERARCHY
ROOT Hips
{
  OFFSET 0 0 0
  CHANNELS 6 Xposition Yposition Zposition Zrotation Xrotation Yrotation
  JOINT Spine
  {
    OFFSET 0.00000000 0.00000000 0.00000000
    CHANNELS 3 Zrotation Xrotation Yrotation
    JOINT Spine1
    {
      OFFSET 0.19000000 0.00000000 0.00000000
      CHANNELS 3 Zrotation Xrotation Yrotation
      JOINT Neck
      {
        OFFSET 0.22500000 0.00600000 0.00000000
        CHANNELS 3 Zrotation Xrotation Yrotation
        JOINT Head
        {
          OFFSET 0.14000000 0.00030878 0.00000000
          CHANNELS 3 Zrotation Xrotation Yrotation
          End Site
          {
            OFFSET 0.17000000 0.00000000 0.00000000
          }
        }
      }
      JOINT LeftShoulder
      {
        OFFSET 0.19800000 0.03700000 0.04300000
        CHANNELS 3 Zrotation Xrotation Yrotation
        JOINT LeftArm
        {
          OFFSET 0.08000000 0.00000000 0.00000000
          CHANNELS 3 Zrotation Xrotation Yrotation
          JOINT LeftForeArm
          {
            OFFSET 0.15200000 0.00000000 0.00000000
            CHANNELS 3 Zrotation Xrotation Yrotation
            JOINT LeftHand
            {
              OFFSET 0.17800000 0.00000000 0.00000000
              CHANNELS 3 Zrotation Xrotation Yrotation
              End Site
              {
                OFFSET 0.07200000 0.00000000 0.00000000
              }
            }
          }
        }
      }
      JOINT RightShoulder
      {
        OFFSET 0.19800000 0.03700000 -0.04300000
        CHANNELS 3 Zrotation Xrotation Yrotation
        JOINT RightArm
        {
          OFFSET 0.08000000 0.00000000 0.00151654
          CHANNELS 3 Zrotation Xrotation Yrotation
          JOINT RightForeArm
          {
            OFFSET 0.15200000 0.00000000 0.00000000
            CHANNELS 3 Zrotation Xrotation Yrotation
            JOINT RightHand
            {
              OFFSET 0.17800000 0.00000000 0.00000000
              CHANNELS 3 Zrotation Xrotation Yrotation
              End Site
              {
                OFFSET 0.07200000 0.00000000 0.00000000
              }
            }
          }
        }
      }
    }
  }
  JOINT LeftUpLeg
  {
    OFFSET 0.05984250 -0.07666000 0.04788790
    CHANNELS 3 Zrotation Xrotation Yrotation
    JOINT LeftLeg
    {
      OFFSET 0.16000000 0.00000000 0.00000000
      CHANNELS 3 Zrotation Xrotation Yrotation
      JOINT LeftFoot
      {
        OFFSET 0.18000000 0.00000000 0.00000000
        CHANNELS 3 Zrotation Xrotation Yrotation
        End Site
        {
          OFFSET 0.00000000 -0.10800000 0.00000000
        }
      }
    }
  }
  JOINT RightUpLeg
  {
    OFFSET 0.05984250 -0.07665980 -0.04788790
    CHANNELS 3 Zrotation Xrotation Yrotation
    JOINT RightLeg
    {
      OFFSET 0.16000000 0.00000000 0.00000000
      CHANNELS 3 Zrotation Xrotation Yrotation
      JOINT RightFoot
      {
        OFFSET 0.18000000 0.00000000 0.00000000
        CHANNELS 3 Zrotation Xrotation Yrotation
        End Site
        {
          OFFSET 0.00000000 -0.10800000 0.00000000
        }
      }
    }
  }
  JOINT Tail
  {
    OFFSET 0.06836960 -0.00722574 0.00000000
    CHANNELS 3 Zrotation Xrotation Yrotation
    JOINT Tail1
    {
      OFFSET 0.12000000 0.00000000 0.00000000
      CHANNELS 3 Zrotation Xrotation Yrotation
      End Site
      {
        OFFSET 0.12000000 0.00000000 0.00000000
      }
    }
  }
}
MOTION
Frames:	17
Frame Time:	0.0166667
-5.5018935 0.4400510 -0.1444911 2.36242 19.0072 -15.3766 -175.405 4.63977 -10.0896 6.36163 2.97991 23.7429 -4.77287 -1.97234 6.25194 -115.249 51.4219 126.634 -114.367 -49.7322 -126.727 116.544 -1.72698 -128.319 -66.6339 2.80201 9.74509 -14.4391 2.25055 -13.3203 80.7918 -19.5014 35.5338 29.176 -58.5702 -39.0168 -64.2088 -15.97 -8.24579 -20.1224 0.858794 4.93765 -128.44 0.660844 -43.2915 75.5137 26.6645 25.3319 25.005 -5.69425 -11.5253 -139.75 -7.71289 -5.10915 122.078 -12.8673 -4.24897 18.1278 -2.23384 -3.38077 -7.43889 -26.3819 -31.1104 28.0185 1.73016 -23.0058 
-5.5229056 0.4383800 -0.1474969 2.23120 18.6429 -12.7310 -174.073 3.86637 -8.4833 4.64993 1.50964 24.8405 -4.101 -1.75779 8.10467 -114.93 51.3687 127.98 -113.703 -48.336 -127.193 112.041 -3.93906 -130.45 -71.8774 1.58143 11.6534 -12.1484 1.29501 -11.2262 79.5866 -21.4947 37.2363 33.4407 -58.8163 -41.7302 -65.0464 -12.0729 -7.86979 -12.9206 2.71231 -2.83497 -128.678 1.11402 -41.7768 79.5422 27.7837 21.5722 25.2778 -5.50185 -11.1743 -142.911 -7.55151 -8.58092 116.779 -10.9561 -3.53351 20.3221 -1.92002 -3.006 -23.3788 -35.2808 -32.8695 24.5634 19.1621 -30.0077 
-5.5469753 0.4374470 -0.1510290 3.08307 17.2957 -9.76087 -172.522 3.22869 -6.3227 1.5278 -0.322998 26.0425 -3.52074 -1.82627 10.0287 -114.254 51.7494 129.154 -113.356 -46.7351 -128.625 107.394 -9.55967 -132.596 -79.2614 4.21225 12.2618 -15.2132 3.19457 -18.5201 78.0722 -24.2941 39.8529 46.3705 -56.5054 -41.0352 -69.3222 -3.90586 -7.69254 2.00539 2.88979 -17.6593 -129.728 1.74258 -37.6083 84.0436 26.0984 16.5063 26.5332 -4.89793 -9.97209 -144.787 -5.77329 -9.86453 109.206 -8.62599 -2.68622 23.6396 -1.57444 -2.64115 -33.5423 -38.5968 -31.8098 17.8141 31.3369 -28.5601 
-5.5726712 0.4376350 -0.1540861 5.05901 15.4024 -7.72604 -171.312 2.75924 -4.15804 -2.49152 -2.24521 26.7417 -2.8479 -1.83897 11.4926 -114.088 51.5148 129.897 -112.859 -44.8626 -130.209 102.181 -13.2555 -134.188 -85.6104 5.75029 13.3068 -17.2833 2.92395 -17.7784 76.7794 -26.8345 42.0135 65.5597 -53.825 -34.4753 -76.365 4.81932 -7.70653 15.6327 -0.728349 -24.4804 -130.104 1.63056 -33.0482 85.7461 23.6161 13.1866 28.2409 -4.42645 -9.03719 -147.248 -2.61535 -7.41924 101.231 -7.31324 -2.76997 30.0025 -1.11906 -2.29004 -37.1128 -38.7111 -26.3129 10.1317 35.3993 -22.2247 
-5.5976382 0.4392310 -0.1565382 6.92614 13.8860 -6.71294 -169.464 2.66438 -1.99002 -7.23451 -3.73872 26.2376 -2.17569 -1.52251 12.4406 -114.628 51.7779 130.527 -112.33 -42.8555 -132.044 97.9085 -17.5543 -138.326 -90.5941 4.27596 13.9344 -18.24 3.81926 -20.7261 75.3898 -29.0769 42.6864 73.1451 -53.9334 -34.7938 -81.9406 24.823 -5.84233 38.8671 -6.13391 -11.9483 -129.207 1.15893 -29.6099 85.5182 21.4391 11.1324 30.3757 -4.1723 -8.49435 -149.01 1.20487 -3.64536 92.4525 -7.7676 -4.40541 36.4238 -0.461715 -1.73422 -35.3372 -37.3956 -17.7947 4.33232 32.7407 -15.5461 
-5.6198391 0.4407870 -0.1598106 8.19574 12.4263 -6.60903 -167.848 2.6413 0.17831 -11.7562 -4.66046 24.1497 -0.968673 -0.895569 14.1021 -115.841 53.4715 131.232 -111.762 -40.187 -135.051 93.8714 -18.3373 -143.251 -93.5956 2.59118 15.4076 -20.555 4.3421 -21.59 75.3253 -29.2361 42.8526 68.227 -53.8175 -39.462 -85.4112 36.6015 -3.4619 58.6709 -7.06667 -3.69035 -127.316 -0.166611 -27.2244 84.4873 19.607 10.0712 31.8501 -3.99823 -8.14892 -150.173 4.48636 0.636366 84.0171 -11.2369 -7.81755 40.8751 0.621716 -0.660441 -30.188 -34.5501 -7.58431 1.73599 26.0877 -9.98967 
-5.6388736 0.4418770 -0.1632502 8.55532 11.1247 -7.28945 -167.716 2.68323 1.10555 -13.0218 -4.69221 22.8766 -1.03861 -0.505581 15.187 -116.452 55.3881 132.111 -111.485 -38.5708 -137.214 91.5825 -18.5992 -146.196 -94.1559 1.41108 16.4372 -23.2463 5.04194 -22.388 75.257 -29.3441 42.8772 62.7205 -50.6697 -43.6537 -89.7948 50.9206 -2.05544 73.5374 -1.46478 10.5573 -124.257 -2.03227 -25.3244 82.9101 18.3095 9.30224 33.0132 -3.88864 -7.88981 -150.789 8.26799 5.56797 76.3925 -15.1158 -13.3556 45.0062 2.02848 0.715613 -23.3439 -30.3998 3.4906 1.73414 18.2769 -5.4617 
-5.6541992 0.4425600 -0.1658062 7.96108 9.86760 -8.41115 -168.412 2.89939 1.24784 -12.1122 -4.215 22.6456 -1.65519 -1.03665 14.8415 -115.728 55.8984 131.643 -111.03 -37.0716 -138.854 90.906 -17.8549 -146.733 -92.9108 0.386561 16.9503 -25.6166 5.44297 -22.0764 74.578 -30.1956 42.5871 63.4016 -43.6983 -43.7142 -92.0233 45.6579 -3.71396 75.5825 -7.58649 -0.677959 -120.785 -4.14807 -23.661 81.8811 17.446 8.75027 34.6552 -3.86605 -7.74595 -150.845 11.8719 9.71176 70.6247 -17.5663 -18.7996 48.3577 3.15847 1.73092 -16.6248 -25.566 14.8516 2.75677 11.7105 -1.34392 
-5.6664354 0.4427850 -0.1674485 6.68636 9.03261 -9.43871 -169.146 3.68909 1.55811 -10.5141 -3.16509 22.8733 -2.30411 -2.47224 13.6393 -114.109 56.3927 129.517 -110.557 -35.9145 -139.882 91.5845 -17.6848 -145.588 -90.4491 1.17975 16.5482 -28.3746 6.16775 -22.2159 73.6216 -31.6006 42.6954 66.7564 -35.4061 -43.6094 -93.3391 46.0825 -8.43261 67.1318 -6.47583 -0.614167 -116.726 -5.72832 -21.9526 80.9427 16.4919 8.25165 35.1159 -3.84491 -7.67163 -151.063 14.7653 11.4908 69.0132 -16.7727 -21.5342 48.9438 3.50868 2.07823 -11.1943 -21.0688 24.7456 4.10801 7.27935 2.34938 
-5.6765071 0.4433820 -0.1693074 4.51674 8.39149 -10.2403 -169.168 4.57829 2.24686 -8.95658 -2.01131 22.7974 -2.45349 -4.19088 12.4336 -112.737 55.7565 126.533 -110.163 -34.995 -140.692 93.3436 -18.3121 -143.989 -87.1774 2.05523 15.3046 -29.4914 6.19279 -21.2478 73.1451 -32.4742 43.1333 70.1266 -26.3687 -44.2475 -93.9234 38.6585 -12.734 52.5775 -8.02381 -10.8643 -111.889 -7.022 -20.2385 80.1212 15.7139 7.98682 35.3139 -3.89389 -7.74105 -150.766 15.8372 10.6059 69.1407 -14.6246 -21.4286 50.1157 3.63204 2.0239 -6.16881 -16.4919 33.4281 5.80311 4.36221 6.02224 
-5.6857130 0.4437800 -0.1719642 1.87034 7.52441 -10.8848 -168.788 5.27516 3.8742 -7.77792 -0.949421 21.2666 -1.86203 -5.97743 12.3729 -111.817 55.4589 123.452 -110.183 -34.3401 -142.123 95.611 -19.4465 -143.005 -83.5742 3.04098 13.6289 -29.9623 6.32297 -20.7932 73.3941 -32.3468 43.6341 71.8724 -19.0319 -44.015 -95.351 28.6557 -14.9467 37.5085 -6.82499 -22.2699 -106.729 -8.45093 -18.4801 79.0072 15.2727 7.92688 36.097 -3.97853 -7.8368 -149.763 14.7206 7.43894 68.4267 -11.5689 -19.1243 54.2292 3.62697 1.45828 -1.74624 -11.7426 41.4322 7.76487 2.87144 10.0908 
-5.6949861 0.4434250 -0.1748580 -0.71986 6.24585 -11.7618 -168.904 5.38704 5.2613 -6.13279 -0.399478 19.7706 -1.04121 -7.38667 12.8618 -111.115 55.1427 121.296 -110.199 -33.7767 -143.382 98.1365 -20.3981 -141.984 -79.7618 4.67772 11.6288 -29.9168 6.37032 -20.4933 73.4507 -32.6205 44.406 70.8313 -13.9487 -44.7719 -94.4005 15.0357 -15.2567 17.7606 -0.953573 -25.1313 -102.018 -9.9376 -16.3427 78.0398 15.1886 7.93311 38.0073 -4.1347 -7.99686 -147.619 12.4925 3.22564 65.1539 -8.75487 -15.6715 60.4675 3.37511 0.546453 1.79054 -6.76117 48.8143 9.67641 2.74541 14.6768 
-5.7042535 0.4421540 -0.1775620 -2.84056 4.87544 -13.3926 -169.829 5.19792 6.07054 -4.09929 0.0255569 18.233 -0.184782 -8.65824 13.5368 -110.564 54.631 119.664 -110.155 -33.1688 -144.606 101.922 -22.0028 -141.345 -75.5919 6.57619 9.13791 -28.9024 6.32528 -20.5121 73.4292 -32.972 45.0891 67.0681 -8.26087 -45.1324 -91.2272 6.63551 -16.3518 2.06016 2.7724 -16.8552 -97.8093 -11.7219 -13.5637 76.9296 14.5179 7.84927 40.572 -4.20294 -7.96287 -144.093 10.7101 -0.36652 59.4664 -8.51816 -12.9446 67.1007 3.19525 -0.147058 4.2564 -1.90724 56.0398 11.3979 4.05432 20.0974 
-5.7125283 0.4408400 -0.1798732 -4.51980 3.93767 -15.8608 -171.073 4.86768 5.8648 -1.75695 0.445552 16.9738 0.743876 -9.83577 14.7113 -110.749 54.5447 117.995 -109.873 -32.6083 -145.092 105.645 -23.2367 -140.458 -71.6313 7.62978 7.09792 -27.5757 6.24918 -20.5802 73.482 -33.1811 45.6925 64.6454 -4.50634 -45.9619 -88.9994 12.3897 -16.8517 0.599076 0.940724 -5.35171 -94.3931 -13.8515 -11.4625 75.9342 13.9366 8.25307 43.347 -4.37307 -8.05563 -141.395 10.5483 -2.09691 58.91 -9.2581 -11.8847 61.439 2.58385 -0.0956576 5.81378 2.16338 62.7396 12.4728 6.98444 27.0347 
-5.7208694 0.4400910 -0.1810848 -6.23296 2.91328 -18.6489 -171.951 4.55634 5.68742 0.136952 0.813201 15.3008 1.5381 -11.3372 16.2518 -111.329 53.6925 116.245 -109.693 -31.9652 -146.076 109.347 -24.1196 -139.532 -67.7828 9.19968 5.07042 -26.4194 5.96167 -20.1619 73.6773 -33.2622 46.4692 61.5552 -0.47543 -45.7274 -86.5337 10.2765 -16.4515 -0.289637 0.8343 -3.26395 -90.7981 -15.6825 -8.95372 74.2499 13.3909 9.34366 46.8577 -4.75423 -8.37791 -139.135 10.7369 -1.85803 60.6397 -8.03808 -11.7001 59.3973 2.26505 -0.203046 6.94828 5.68928 67.4029 12.2458 11.1086 35.5364 
-5.7299455 0.4399320 -0.1817977 -7.50480 1.51415 -21.4930 -173.318 4.02488 5.79798 2.13693 0.904988 13.4784 1.77351 -12.4163 17.5118 -111.767 53.4712 115.056 -109.278 -31.2646 -146.554 112.969 -24.5722 -138.535 -63.6876 10.3782 3.39087 -25.5526 5.56998 -19.251 73.7146 -33.9043 47.8893 58.7133 2.0914 -46.6216 -82.4012 3.21831 -14.5269 -2.65599 1.32588 -3.85063 -88.3893 -17.0088 -5.77258 72.1322 13.7105 10.1804 52.8226 -5.38445 -8.75489 -138.205 10.3711 0.663503 63.4093 -9.94491 -12.585 56.2835 2.56305 0.29184 7.41152 8.48821 68.7404 10.3934 15.0331 45.1035 
-5.7397151 0.4406480 -0.1852195 -6.68513 2.43331 -24.7196 -174.481 4.87545 3.92831 2.95411 2.22381 13.5259 1.79106 -13.4783 18.441 -112.808 53.5037 114.067 -108.964 -30.7609 -146.863 116.025 -25.9637 -137.882 -59.5849 11.2278 1.64088 -25.1666 5.56682 -19.3908 73.7165 -34.3517 48.7773 55.3053 1.88839 -46.7209 -77.2346 -0.875215 -10.8847 -2.72011 0.719067 -1.26643 -88.7525 -17.3762 -6.35 70.653 16.8579 10.5668 58.1842 -6.03333 -9.07352 -137.323 10.7584 -0.867614 64.2002 -11.9627 -12.3762 56.0707 3.19344 0.836747 6.86682 7.51454 67.0645 8.4035 17.7581 53.5275 
